ffmpeg started on 2025-06-06 at 17:32:26
Report written to "D:\Convert\FFMetrics\reports\psnr_report-6.txt"
Log level: 32
Command line:
ffmpeg -hide_banner -nostdin -i "G:\\\xc0\xed\xe8\xec\xe5\\\xce\xed\xe3\xee\xe8\xed\xe3\xe8\\!_36_\xce\xf1\xe5\xed\xfc_2024\\DreamCast\\\xcf\xeb\xee\xf5\xe0\xff \xef\xee\xe5\xe7\xe4\xea\xe0\\[DC] Acro Trip - 11_Telegram_HEVC.mkv" -i "G:\\\xc0\xed\xe8\xec\xe5\\\xce\xed\xe3\xee\xe8\xed\xe3\xe8\\!_36_\xce\xf1\xe5\xed\xfc_2024\\DreamCast\\\xcf\xeb\xee\xf5\xe0\xff \xef\xee\xe5\xe7\xe4\xea\xe0\\[DC] Acro Trip - 11_Telegram.mp4" -lavfi "[0:v]settb=AVTB,setpts=PTS-STARTPTS,format=pix_fmts=yuv420p10,fps=24000/1001,scale=1920:1080:flags=bicubic[main];[1:v]settb=AVTB,setpts=PTS-STARTPTS,format=pix_fmts=yuv420p,fps=24000/1001,scale=1920:1080:flags=bicubic[ref];[main][ref]psnr=eof_action=endall:stats_file='D\\:/Convert/FFMetrics/logs/psnr_logfile-6.txt'" -f null -
Input #0, matroska,webm, from 'G:\Аниме\Онгоинги\!_36_Осень_2024\DreamCast\Плохая поездка\[DC] Acro Trip - 11_Telegram_HEVC.mkv':
  Metadata:
    COMPATIBLE_BRANDS: isomiso2avc1mp41
    MAJOR_BRAND     : isom
    MINOR_VERSION   : 512
    ENCODER         : Lavf61.7.100
  Duration: 00:23:46.65, start: -0.021000, bitrate: 1398 kb/s
  Stream #0:0: Video: hevc (Main 10), yuv420p10le(tv, bt709, progressive), 1920x1080 [SAR 1:1 DAR 16:9], 23.98 fps, 23.98 tbr, 1k tbn (default)
      Metadata:
        HANDLER_NAME    : VideoHandler
        VENDOR_ID       : [0][0][0][0]
        ENCODER         : Lavc61.19.100 libx265
        BPS             : 1200918
        DURATION        : 00:23:46.549708333
        NUMBER_OF_FRAMES: 34203
        NUMBER_OF_BYTES : 214146220
        _STATISTICS_WRITING_APP: mkvpropedit v66.0.0 ('Josie') 64-bit
        _STATISTICS_WRITING_DATE_UTC: 2025-06-02 13:35:04
        _STATISTICS_TAGS: BPS DURATION NUMBER_OF_FRAMES NUMBER_OF_BYTES
  Stream #0:1: Audio: aac (LC), 48000 Hz, stereo, fltp (default)
      Metadata:
        HANDLER_NAME    : SoundHandler
        VENDOR_ID       : [0][0][0][0]
        ENCODER         : Lavc61.19.100 aac
        BPS             : 194051
        DURATION        : 00:23:46.645000000
        NUMBER_OF_FRAMES: 66875
        NUMBER_OF_BYTES : 34605253
        _STATISTICS_WRITING_APP: mkvpropedit v66.0.0 ('Josie') 64-bit
        _STATISTICS_WRITING_DATE_UTC: 2025-06-02 13:35:04
        _STATISTICS_TAGS: BPS DURATION NUMBER_OF_FRAMES NUMBER_OF_BYTES
Input #1, mov,mp4,m4a,3gp,3g2,mj2, from 'G:\Аниме\Онгоинги\!_36_Осень_2024\DreamCast\Плохая поездка\[DC] Acro Trip - 11_Telegram.mp4':
  Metadata:
    major_brand     : isom
    minor_version   : 512
    compatible_brands: isomiso2avc1mp41
    encoder         : Lavf60.16.100
  Duration: 00:23:46.62, start: 0.000000, bitrate: 3866 kb/s
  Stream #1:0[0x1](und): Video: h264 (High) (avc1 / 0x31637661), yuv420p(tv, bt709, progressive), 1920x1080 [SAR 1:1 DAR 16:9], 3718 kb/s, 23.98 fps, 23.98 tbr, 24k tbn (default)
      Metadata:
        handler_name    : VideoHandler
        vendor_id       : [0][0][0][0]
        encoder         : Lavc60.31.102 h264_qsv
  Stream #1:1[0x2](und): Audio: aac (HE-AACv2) (mp4a / 0x6134706D), 48000 Hz, stereo, fltp, 144 kb/s (default)
      Metadata:
        handler_name    : SoundHandler
        vendor_id       : [0][0][0][0]
Stream mapping:
  Stream #0:0 (hevc) -> settb:default
  Stream #1:0 (h264) -> settb:default
  psnr:default -> Stream #0:0 (wrapped_avframe)
  Stream #0:1 -> #0:1 (aac (native) -> pcm_s16le (native))
Output #0, null, to 'pipe:':
  Metadata:
    COMPATIBLE_BRANDS: isomiso2avc1mp41
    MAJOR_BRAND     : isom
    MINOR_VERSION   : 512
    encoder         : Lavf61.7.100
  Stream #0:0: Video: wrapped_avframe, yuv420p10le(tv, bt709, progressive), 1920x1080 [SAR 1:1 DAR 16:9], q=2-31, 200 kb/s, 23.98 fps, 23.98 tbn
      Metadata:
        encoder         : Lavc61.19.100 wrapped_avframe
  Stream #0:1: Audio: pcm_s16le, 48000 Hz, stereo, s16, 1536 kb/s (default)
      Metadata:
        HANDLER_NAME    : SoundHandler
        VENDOR_ID       : [0][0][0][0]
        _STATISTICS_TAGS: BPS DURATION NUMBER_OF_FRAMES NUMBER_OF_BYTES
        BPS             : 194051
        DURATION        : 00:23:46.645000000
        NUMBER_OF_FRAMES: 66875
        NUMBER_OF_BYTES : 34605253
        _STATISTICS_WRITING_APP: mkvpropedit v66.0.0 ('Josie') 64-bit
        _STATISTICS_WRITING_DATE_UTC: 2025-06-02 13:35:04
        encoder         : Lavc61.19.100 pcm_s16le
frame=  168 fps=0.0 q=-0.0 size=N/A time=00:00:07.00 bitrate=N/A speed=13.6x    frame=  350 fps=338 q=-0.0 size=N/A time=00:00:14.59 bitrate=N/A speed=14.1x    frame=  522 fps=338 q=-0.0 size=N/A time=00:00:21.77 bitrate=N/A speed=14.1x    frame=  711 fps=344 q=-0.0 size=N/A time=00:00:29.65 bitrate=N/A speed=14.3x    frame=  894 fps=345 q=-0.0 size=N/A time=00:00:37.28 bitrate=N/A speed=14.4x    frame= 1062 fps=343 q=-0.0 size=N/A time=00:00:44.29 bitrate=N/A speed=14.3x    frame= 1232 fps=342 q=-0.0 size=N/A time=00:00:51.38 bitrate=N/A speed=14.2x    frame= 1414 fps=342 q=-0.0 size=N/A time=00:00:58.97 bitrate=N/A speed=14.3x    frame= 1599 fps=344 q=-0.0 size=N/A time=00:01:06.69 bitrate=N/A speed=14.4x    frame= 1767 fps=343 q=-0.0 size=N/A time=00:01:13.69 bitrate=N/A speed=14.3x    frame= 1950 fps=344 q=-0.0 size=N/A time=00:01:21.33 bitrate=N/A speed=14.3x    frame= 2128 fps=344 q=-0.0 size=N/A time=00:01:28.75 bitrate=N/A speed=14.3x    frame= 2375 fps=354 q=-0.0 size=N/A time=00:01:39.05 bitrate=N/A speed=14.8x    frame= 2641 fps=365 q=-0.0 size=N/A time=00:01:50.15 bitrate=N/A speed=15.2x    frame= 2910 fps=376 q=-0.0 size=N/A time=00:02:01.37 bitrate=N/A speed=15.7x    frame= 3117 fps=377 q=-0.0 size=N/A time=00:02:10.00 bitrate=N/A speed=15.7x    frame= 3294 fps=376 q=-0.0 size=N/A time=00:02:17.38 bitrate=N/A speed=15.7x    frame= 3482 fps=375 q=-0.0 size=N/A time=00:02:25.22 bitrate=N/A speed=15.6x    frame= 3703 fps=378 q=-0.0 size=N/A time=00:02:34.44 bitrate=N/A speed=15.8x    frame= 3908 fps=379 q=-0.0 size=N/A time=00:02:42.99 bitrate=N/A speed=15.8x    frame= 4094 fps=378 q=-0.0 size=N/A time=00:02:50.75 bitrate=N/A speed=15.8x    frame= 4298 fps=379 q=-0.0 size=N/A time=00:02:59.26 bitrate=N/A speed=15.8x    frame= 4477 fps=377 q=-0.0 size=N/A time=00:03:06.72 bitrate=N/A speed=15.7x    frame= 4643 fps=375 q=-0.0 size=N/A time=00:03:13.65 bitrate=N/A speed=15.6x    frame= 4803 fps=372 q=-0.0 size=N/A time=00:03:20.32 bitrate=N/A speed=15.5x    frame= 4979 fps=371 q=-0.0 size=N/A time=00:03:27.66 bitrate=N/A speed=15.5x    frame= 5135 fps=369 q=-0.0 size=N/A time=00:03:34.17 bitrate=N/A speed=15.4x    frame= 5296 fps=367 q=-0.0 size=N/A time=00:03:40.88 bitrate=N/A speed=15.3x    frame= 5471 fps=366 q=-0.0 size=N/A time=00:03:48.18 bitrate=N/A speed=15.3x    frame= 5724 fps=370 q=-0.0 size=N/A time=00:03:58.73 bitrate=N/A speed=15.4x    frame= 5996 fps=375 q=-0.0 size=N/A time=00:04:10.08 bitrate=N/A speed=15.6x    frame= 6227 fps=377 q=-0.0 size=N/A time=00:04:19.71 bitrate=N/A speed=15.7x    frame= 6489 fps=381 q=-0.0 size=N/A time=00:04:30.64 bitrate=N/A speed=15.9x    frame= 6758 fps=385 q=-0.0 size=N/A time=00:04:41.86 bitrate=N/A speed=16.1x    frame= 7022 fps=389 q=-0.0 size=N/A time=00:04:52.87 bitrate=N/A speed=16.2x    frame= 7288 fps=393 q=-0.0 size=N/A time=00:05:03.97 bitrate=N/A speed=16.4x    frame= 7554 fps=396 q=-0.0 size=N/A time=00:05:15.06 bitrate=N/A speed=16.5x    frame= 7826 fps=399 q=-0.0 size=N/A time=00:05:26.40 bitrate=N/A speed=16.7x    frame= 8075 fps=402 q=-0.0 size=N/A time=00:05:36.79 bitrate=N/A speed=16.7x    frame= 8317 fps=403 q=-0.0 size=N/A time=00:05:46.88 bitrate=N/A speed=16.8x    frame= 8592 fps=406 q=-0.0 size=N/A time=00:05:58.35 bitrate=N/A speed=16.9x    frame= 8851 fps=409 q=-0.0 size=N/A time=00:06:09.16 bitrate=N/A speed=  17x    frame= 9131 fps=412 q=-0.0 size=N/A time=00:06:20.83 bitrate=N/A speed=17.2x    frame= 9404 fps=414 q=-0.0 size=N/A time=00:06:32.22 bitrate=N/A speed=17.3x    frame= 9659 fps=416 q=-0.0 size=N/A time=00:06:42.86 bitrate=N/A speed=17.4x    frame= 9900 fps=417 q=-0.0 size=N/A time=00:06:52.91 bitrate=N/A speed=17.4x    frame=10094 fps=416 q=-0.0 size=N/A time=00:07:01.00 bitrate=N/A speed=17.4x    frame=10299 fps=416 q=-0.0 size=N/A time=00:07:09.55 bitrate=N/A speed=17.4x    frame=10454 fps=414 q=-0.0 size=N/A time=00:07:16.01 bitrate=N/A speed=17.3x    frame=10639 fps=413 q=-0.0 size=N/A time=00:07:23.73 bitrate=N/A speed=17.2x    frame=10817 fps=411 q=-0.0 size=N/A time=00:07:31.15 bitrate=N/A speed=17.2x    frame=11008 fps=411 q=-0.0 size=N/A time=00:07:39.12 bitrate=N/A speed=17.1x    frame=11212 fps=410 q=-0.0 size=N/A time=00:07:47.63 bitrate=N/A speed=17.1x    frame=11407 fps=410 q=-0.0 size=N/A time=00:07:55.76 bitrate=N/A speed=17.1x    frame=11609 fps=409 q=-0.0 size=N/A time=00:08:04.19 bitrate=N/A speed=17.1x    frame=11847 fps=410 q=-0.0 size=N/A time=00:08:14.11 bitrate=N/A speed=17.1x    frame=12084 fps=411 q=-0.0 size=N/A time=00:08:24.00 bitrate=N/A speed=17.1x    frame=12306 fps=411 q=-0.0 size=N/A time=00:08:33.26 bitrate=N/A speed=17.2x    frame=12579 fps=413 q=-0.0 size=N/A time=00:08:44.64 bitrate=N/A speed=17.2x    frame=12861 fps=416 q=-0.0 size=N/A time=00:08:56.41 bitrate=N/A speed=17.3x    frame=13149 fps=418 q=-0.0 size=N/A time=00:09:08.42 bitrate=N/A speed=17.4x    frame=13419 fps=420 q=-0.0 size=N/A time=00:09:19.68 bitrate=N/A speed=17.5x    frame=13657 fps=420 q=-0.0 size=N/A time=00:09:29.61 bitrate=N/A speed=17.5x    frame=13890 fps=421 q=-0.0 size=N/A time=00:09:39.32 bitrate=N/A speed=17.6x    frame=14087 fps=420 q=-0.0 size=N/A time=00:09:47.54 bitrate=N/A speed=17.5x    frame=14360 fps=422 q=-0.0 size=N/A time=00:09:58.93 bitrate=N/A speed=17.6x    frame=14583 fps=422 q=-0.0 size=N/A time=00:10:08.23 bitrate=N/A speed=17.6x    frame=14855 fps=424 q=-0.0 size=N/A time=00:10:19.57 bitrate=N/A speed=17.7x    frame=15134 fps=425 q=-0.0 size=N/A time=00:10:31.21 bitrate=N/A speed=17.7x    frame=15387 fps=426 q=-0.0 size=N/A time=00:10:41.76 bitrate=N/A speed=17.8x    frame=15631 fps=427 q=-0.0 size=N/A time=00:10:51.94 bitrate=N/A speed=17.8x    frame=15891 fps=428 q=-0.0 size=N/A time=00:11:02.78 bitrate=N/A speed=17.8x    frame=16109 fps=428 q=-0.0 size=N/A time=00:11:11.87 bitrate=N/A speed=17.8x    frame=16362 fps=429 q=-0.0 size=N/A time=00:11:22.43 bitrate=N/A speed=17.9x    frame=16637 fps=430 q=-0.0 size=N/A time=00:11:33.90 bitrate=N/A speed=17.9x    frame=16907 fps=431 q=-0.0 size=N/A time=00:11:45.16 bitrate=N/A speed=  18x    frame=17174 fps=432 q=-0.0 size=N/A time=00:11:56.29 bitrate=N/A speed=  18x    frame=17406 fps=433 q=-0.0 size=N/A time=00:12:05.97 bitrate=N/A speed=  18x    frame=17661 fps=434 q=-0.0 size=N/A time=00:12:16.61 bitrate=N/A speed=18.1x    frame=17926 fps=434 q=-0.0 size=N/A time=00:12:27.66 bitrate=N/A speed=18.1x    frame=18208 fps=436 q=-0.0 size=N/A time=00:12:39.42 bitrate=N/A speed=18.2x    frame=18474 fps=437 q=-0.0 size=N/A time=00:12:50.51 bitrate=N/A speed=18.2x    frame=18733 fps=438 q=-0.0 size=N/A time=00:13:01.32 bitrate=N/A speed=18.3x    frame=19004 fps=439 q=-0.0 size=N/A time=00:13:12.62 bitrate=N/A speed=18.3x    frame=19287 fps=440 q=-0.0 size=N/A time=00:13:24.42 bitrate=N/A speed=18.4x    frame=19564 fps=441 q=-0.0 size=N/A time=00:13:35.98 bitrate=N/A speed=18.4x    frame=19797 fps=441 q=-0.0 size=N/A time=00:13:45.69 bitrate=N/A speed=18.4x    frame=20061 fps=442 q=-0.0 size=N/A time=00:13:56.71 bitrate=N/A speed=18.4x    frame=20308 fps=443 q=-0.0 size=N/A time=00:14:07.01 bitrate=N/A speed=18.5x    frame=20568 fps=443 q=-0.0 size=N/A time=00:14:17.85 bitrate=N/A speed=18.5x    frame=20853 fps=444 q=-0.0 size=N/A time=00:14:29.74 bitrate=N/A speed=18.5x    frame=21081 fps=444 q=-0.0 size=N/A time=00:14:39.25 bitrate=N/A speed=18.5x    frame=21354 fps=445 q=-0.0 size=N/A time=00:14:50.63 bitrate=N/A speed=18.6x    frame=21614 fps=446 q=-0.0 size=N/A time=00:15:01.48 bitrate=N/A speed=18.6x    frame=21896 fps=447 q=-0.0 size=N/A time=00:15:13.24 bitrate=N/A speed=18.6x    frame=22173 fps=448 q=-0.0 size=N/A time=00:15:24.79 bitrate=N/A speed=18.7x    frame=22459 fps=449 q=-0.0 size=N/A time=00:15:36.72 bitrate=N/A speed=18.7x    frame=22735 fps=450 q=-0.0 size=N/A time=00:15:48.23 bitrate=N/A speed=18.8x    frame=22994 fps=450 q=-0.0 size=N/A time=00:15:59.04 bitrate=N/A speed=18.8x    frame=23272 fps=451 q=-0.0 size=N/A time=00:16:10.63 bitrate=N/A speed=18.8x    frame=23518 fps=451 q=-0.0 size=N/A time=00:16:20.89 bitrate=N/A speed=18.8x    frame=23744 fps=451 q=-0.0 size=N/A time=00:16:30.32 bitrate=N/A speed=18.8x    frame=23946 fps=451 q=-0.0 size=N/A time=00:16:38.74 bitrate=N/A speed=18.8x    frame=24173 fps=451 q=-0.0 size=N/A time=00:16:48.21 bitrate=N/A speed=18.8x    frame=24389 fps=450 q=-0.0 size=N/A time=00:16:57.22 bitrate=N/A speed=18.8x    frame=24656 fps=451 q=-0.0 size=N/A time=00:17:08.36 bitrate=N/A speed=18.8x    frame=24868 fps=451 q=-0.0 size=N/A time=00:17:17.20 bitrate=N/A speed=18.8x    frame=25088 fps=450 q=-0.0 size=N/A time=00:17:26.37 bitrate=N/A speed=18.8x    frame=25277 fps=450 q=-0.0 size=N/A time=00:17:34.26 bitrate=N/A speed=18.8x    frame=25521 fps=450 q=-0.0 size=N/A time=00:17:44.43 bitrate=N/A speed=18.8x    frame=25780 fps=450 q=-0.0 size=N/A time=00:17:55.24 bitrate=N/A speed=18.8x    frame=26019 fps=450 q=-0.0 size=N/A time=00:18:05.20 bitrate=N/A speed=18.8x    frame=26230 fps=450 q=-0.0 size=N/A time=00:18:14.00 bitrate=N/A speed=18.8x    frame=26463 fps=450 q=-0.0 size=N/A time=00:18:23.72 bitrate=N/A speed=18.8x    frame=26700 fps=450 q=-0.0 size=N/A time=00:18:33.61 bitrate=N/A speed=18.8x    frame=26972 fps=451 q=-0.0 size=N/A time=00:18:44.95 bitrate=N/A speed=18.8x    frame=27262 fps=452 q=-0.0 size=N/A time=00:18:57.05 bitrate=N/A speed=18.8x    frame=27481 fps=452 q=-0.0 size=N/A time=00:19:06.18 bitrate=N/A speed=18.8x    frame=27713 fps=451 q=-0.0 size=N/A time=00:19:15.86 bitrate=N/A speed=18.8x    frame=27991 fps=452 q=-0.0 size=N/A time=00:19:27.45 bitrate=N/A speed=18.9x    frame=28254 fps=453 q=-0.0 size=N/A time=00:19:38.42 bitrate=N/A speed=18.9x    frame=28535 fps=453 q=-0.0 size=N/A time=00:19:50.14 bitrate=N/A speed=18.9x    frame=28797 fps=454 q=-0.0 size=N/A time=00:20:01.07 bitrate=N/A speed=18.9x    frame=29066 fps=454 q=-0.0 size=N/A time=00:20:12.29 bitrate=N/A speed=18.9x    frame=29354 fps=455 q=-0.0 size=N/A time=00:20:24.30 bitrate=N/A speed=  19x    frame=29623 fps=456 q=-0.0 size=N/A time=00:20:35.52 bitrate=N/A speed=  19x    frame=29898 fps=456 q=-0.0 size=N/A time=00:20:46.99 bitrate=N/A speed=  19x    frame=30129 fps=456 q=-0.0 size=N/A time=00:20:56.63 bitrate=N/A speed=  19x    frame=30328 fps=456 q=-0.0 size=N/A time=00:21:04.93 bitrate=N/A speed=  19x    frame=30539 fps=455 q=-0.0 size=N/A time=00:21:13.73 bitrate=N/A speed=  19x    frame=30812 fps=456 q=-0.0 size=N/A time=00:21:25.11 bitrate=N/A speed=  19x    frame=31054 fps=456 q=-0.0 size=N/A time=00:21:35.21 bitrate=N/A speed=  19x    frame=31338 fps=457 q=-0.0 size=N/A time=00:21:47.05 bitrate=N/A speed=  19x    frame=31625 fps=457 q=-0.0 size=N/A time=00:21:59.02 bitrate=N/A speed=19.1x    frame=31878 fps=458 q=-0.0 size=N/A time=00:22:09.57 bitrate=N/A speed=19.1x    frame=32091 fps=457 q=-0.0 size=N/A time=00:22:18.46 bitrate=N/A speed=19.1x    frame=32335 fps=457 q=-0.0 size=N/A time=00:22:28.63 bitrate=N/A speed=19.1x    frame=32549 fps=457 q=-0.0 size=N/A time=00:22:37.56 bitrate=N/A speed=19.1x    frame=32799 fps=457 q=-0.0 size=N/A time=00:22:47.99 bitrate=N/A speed=19.1x    frame=33048 fps=457 q=-0.0 size=N/A time=00:22:58.37 bitrate=N/A speed=19.1x    frame=33279 fps=457 q=-0.0 size=N/A time=00:23:08.01 bitrate=N/A speed=19.1x    frame=33482 fps=457 q=-0.0 size=N/A time=00:23:16.47 bitrate=N/A speed=19.1x    frame=33714 fps=457 q=-0.0 size=N/A time=00:23:26.15 bitrate=N/A speed=19.1x    frame=33942 fps=457 q=-0.0 size=N/A time=00:23:35.66 bitrate=N/A speed=19.1x    [Parsed_psnr_10 @ 000001fa7b7c6b00] PSNR y:48.374830 u:49.609969 v:49.412878 average:48.721351 min:41.373658 max:inf
[out#0/null @ 000001fa7b675e00] video:14697KiB audio:267500KiB subtitle:0KiB other streams:0KiB global headers:0KiB muxing overhead: unknown
frame=34203 fps=457 q=-0.0 Lsize=N/A time=00:23:46.55 bitrate=N/A speed=19.1x    
